<?xml version="1.0" encoding="utf-8"?>
<!-- Generator: Adobe Illustrator 16.0.4, SVG Export Plug-In . SVG Version: 6.00 Build 0)  -->
<!DOCTYPE svg PUBLIC "-//W3C//DTD SVG 1.1//EN" "http://www.w3.org/Graphics/SVG/1.1/DTD/svg11.dtd">
<svg version="1.1" id="Layer_1" xmlns="http://www.w3.org/2000/svg" xmlns:xlink="http://www.w3.org/1999/xlink" x="0px" y="0px"
	 width="157.665px" height="61.667px" viewBox="0 0 157.665 61.667" enable-background="new 0 0 157.665 61.667"
	 xml:space="preserve">
<g>
	<text transform="matrix(1 0 0 1 -2.0938 40.9951)" fill="#B2B2B2" font-family="'GothamExtraLight'" font-size="50.48">Happ</text>
</g>
<text transform="matrix(1 0 0 1 133.4043 40.2856)" fill="#FF7500" font-family="'BaskOldFace'" font-size="50.48">i</text>
<path fill="#FF7500" d="M1.001,47.292c16.187,2.404,27.99,3.955,35.402,4.649C47.629,53,60.787,53.53,75.879,53.53
	s28.903-0.612,41.434-1.837c7.728-0.756,18.849-2.246,33.366-4.468v2.745c-12.846,2.329-20.771,3.739-23.774,4.23
	c-3.001,0.492-7.139,1.025-12.411,1.6c-6.527,0.725-12.975,1.244-19.347,1.554c-6.368,0.31-12.504,0.464-18.405,0.464
	c-15.46,0-29.242-0.711-41.354-2.132c-7.781-0.893-19.243-2.745-34.386-5.557v-2.835H1.001z"/>
</svg>
